<?xml version="1.0" standalone="no"?>
<!DOCTYPE svg PUBLIC "-//W3C//DTD SVG 20010904//EN"
 "http://www.w3.org/TR/2001/REC-SVG-20010904/DTD/svg10.dtd">
<svg version="1.0" xmlns="http://www.w3.org/2000/svg"
 width="260.000000pt" height="260.000000pt" viewBox="0 0 260.000000 260.000000"
 preserveAspectRatio="xMidYMid meet">
<metadata>
Created by potrace 1.14, written by Peter Selinger 2001-2017
</metadata>
<g transform="translate(0.000000,260.000000) scale(0.100000,-0.100000)"
fill="#000000" stroke="none">
<path d="M1279 2593 c-1 -5 -1 -10 -1 -13 0 -3 -6 -11 -14 -18 -8 -7 -14 -8
-14 -3 0 5 -15 9 -32 8 -34 -2 -59 -17 -51 -29 2 -5 -2 -8 -9 -9 -43 -3 -60
-7 -71 -19 -9 -10 -9 -11 1 -6 6 4 12 3 12 -2 0 -6 -7 -12 -15 -16 -8 -3 -15
0 -15 7 0 8 -3 8 -9 -2 -7 -11 -9 -11 -14 0 -4 11 -6 11 -6 1 -1 -7 -5 -10
-11 -7 -5 3 -10 0 -10 -8 0 -8 -8 -21 -17 -28 -14 -12 -16 -12 -8 0 6 10 4 12
-4 7 -7 -5 -10 -14 -7 -22 5 -13 -18 -20 -47 -15 -10 2 -38 -26 -37 -34 1 -4
-1 -9 -4 -12 -3 -4 -6 -1 -6 7 0 10 -4 10 -17 -1 -13 -11 -15 -11 -9 -1 7 11
4 11 -13 0 -12 -7 -19 -18 -17 -24 2 -6 -9 -10 -30 -9 -25 0 -36 -4 -40 -17
-3 -10 -13 -18 -21 -18 -9 0 -14 -3 -10 -6 12 -13 -29 -39 -56 -36 -15 3 -27
0 -26 -4 4 -22 -3 -31 -23 -31 -41 -1 -51 -3 -45 -10 9 -8 -70 -66 -81 -59
-12 7 -44 -29 -35 -39 5 -4 0 -5 -11 -1 -10 3 -26 1 -34 -6 -12 -10 -14 -10
-8 -1 5 9 2 11 -8 7 -9 -3 -15 -9 -14 -12 2 -23 -5 -29 -31 -26 -23 3 -31 -1
-36 -16 -4 -11 -13 -20 -21 -20 -13 0 -19 -12 -15 -33 1 -5 -3 -6 -8 -3 -12 8
-43 -23 -35 -35 3 -5 2 -9 -3 -8 -21 4 -33 -2 -33 -17 0 -10 -6 -14 -15 -10
-8 3 -14 2 -14 -2 1 -4 1 -9 -1 -12 -1 -3 -3 -15 -6 -28 -3 -16 0 -21 8 -17 7
4 4 0 -6 -9 -10 -8 -23 -13 -27 -10 -5 3 -9 -252 -9 -565 0 -562 0 -571 20
-571 16 0 19 -6 16 -30 -2 -21 1 -31 14 -35 24 -7 34 -36 18 -47 -10 -6 -10
-8 1 -8 8 0 11 -6 7 -17 -4 -10 -4 -14 0 -11 10 11 46 -12 41 -25 -3 -8 8 -12
32 -12 25 0 36 -4 36 -15 0 -9 10 -15 26 -16 33 -1 51 -12 43 -26 -4 -7 -2 -8
4 -4 7 4 12 2 12 -3 0 -6 7 -11 16 -11 8 0 13 -3 11 -7 -3 -5 1 -14 9 -21 11
-10 14 -10 14 0 0 8 3 9 8 3 4 -5 14 -11 22 -13 8 -2 20 -12 28 -23 7 -11 18
-17 23 -14 13 9 50 -5 44 -16 -6 -8 15 -13 42 -10 7 1 13 -3 13 -9 0 -6 5 -8
12 -4 6 4 8 3 5 -3 -4 -6 5 -18 18 -27 14 -9 23 -21 20 -26 -3 -5 8 -8 23 -8
34 1 52 -8 52 -27 0 -9 11 -13 32 -12 23 1 33 -2 33 -13 0 -9 8 -14 18 -12 9
2 17 -1 16 -5 -4 -22 3 -33 20 -33 11 0 22 -6 24 -12 4 -10 6 -9 6 1 1 11 5
10 21 -4 11 -10 17 -22 13 -28 -4 -6 -1 -7 7 -2 7 4 16 2 21 -6 6 -10 9 -11 9
-1 0 6 7 12 16 12 11 0 14 -6 8 -22 -3 -13 -3 -20 1 -16 4 4 18 3 31 -2 17 -7
24 -6 24 3 0 6 8 0 18 -16 9 -15 22 -27 29 -27 7 0 13 -6 13 -14 0 -8 5 -18
12 -22 7 -5 8 -3 3 6 -6 10 -4 11 6 4 21 -13 39 -14 39 -1 0 7 5 5 10 -3 5 -8
10 -11 10 -7 0 4 10 3 21 -4 17 -9 19 -13 8 -20 -9 -5 17 -9 69 -9 75 0 82 2
82 19 0 14 6 19 20 16 11 -2 20 2 20 8 0 8 4 7 9 -2 8 -12 12 -10 21 11 10 20
18 24 43 22 17 -2 28 -1 24 2 -3 4 4 15 16 24 16 13 24 15 29 7 6 -9 8 -8 8 1
0 7 5 10 10 7 6 -3 10 -1 10 5 0 6 5 8 12 4 7 -4 8 -3 4 5 -4 6 -1 14 8 17 8
3 18 14 21 25 4 10 11 19 16 19 6 0 7 -5 3 -11 -5 -8 -1 -8 13 0 11 6 23 7 27
4 3 -3 6 0 6 8 0 20 34 39 50 29 16 -10 33 -3 25 10 -3 4 3 14 12 21 12 10 14
10 9 2 -4 -7 -5 -13 -1 -13 3 0 10 11 15 25 7 19 17 25 39 25 15 0 35 8 42 17
12 14 12 16 -1 9 -8 -4 -6 0 4 8 13 10 23 13 29 7 14 -14 47 5 47 26 0 10 6
14 19 10 24 -6 51 10 51 31 0 13 2 14 9 4 6 -11 10 -10 16 5 5 10 7 22 6 27
-1 5 7 6 19 3 11 -3 20 0 20 6 0 8 3 7 9 -1 6 -10 14 -5 30 20 13 18 20 25 17
15 -5 -15 -3 -16 17 -6 12 7 23 12 25 11 1 -1 2 0 2 3 0 3 5 12 12 19 10 10
15 11 20 2 6 -8 8 -8 8 1 0 6 9 9 20 6 14 -4 20 0 20 11 0 9 5 16 11 16 6 0
17 7 25 15 12 12 12 15 2 15 -10 0 -10 3 2 9 8 6 18 7 22 5 4 -3 8 -1 8 5 0
15 57 71 72 71 9 0 9 3 -2 11 -11 8 -12 12 -3 16 17 6 19 1223 2 1223 -5 0 -7
-6 -3 -12 5 -9 3 -9 -9 1 -12 9 -15 23 -12 42 3 17 1 29 -6 29 -14 0 -39 26
-32 34 4 3 1 6 -6 6 -14 0 -47 29 -34 31 4 1 -3 4 -17 8 -14 4 -28 3 -32 -3
-4 -5 -12 2 -19 17 -7 16 -18 26 -26 23 -7 -3 -13 0 -13 7 0 9 -2 9 -8 0 -5
-8 -13 -9 -22 -3 -8 6 -11 10 -7 10 4 0 -7 15 -25 34 -24 24 -37 30 -45 23 -9
-6 -13 -6 -13 2 0 7 -4 10 -9 6 -5 -3 -16 4 -24 15 -8 12 -21 18 -35 15 -12
-2 -22 0 -22 5 0 23 -30 36 -79 34 -35 -2 -51 1 -51 9 0 9 -2 9 -8 -1 -5 -7
-19 -11 -33 -8 -13 2 -32 -1 -43 -6 -13 -7 -16 -7 -12 1 14 22 -14 10 -39 -16
-17 -19 -25 -23 -25 -13 -1 11 -3 11 -11 -3 -8 -14 -14 -16 -25 -6 -11 9 -14
8 -14 -9 0 -12 -5 -24 -12 -28 -6 -4 -8 -3 -5 3 10 15 -38 11 -52 -4 -6 -7
-11 -15 -11 -18 0 -3 -2 -4 -3 -2 -2 1 -12 -5 -22 -13 -11 -9 -16 -10 -11 -2
4 6 4 12 -1 12 -11 0 -35 -16 -34 -23 0 -3 -13 -19 -28 -36 -19 -20 -32 -27
-41 -21 -15 10 -43 -7 -35 -20 7 -12 -20 -20 -50 -14 -15 3 -24 1 -21 -4 7
-11 -11 -37 -26 -37 -7 -1 -12 -6 -11 -12 1 -6 -11 -16 -27 -22 -22 -7 -30 -7
-31 2 0 7 -5 2 -11 -10 -6 -13 -17 -23 -25 -23 -8 0 -11 -4 -8 -10 3 -6 -1 -7
-9 -4 -9 3 -13 11 -9 18 4 6 -1 5 -10 -3 -9 -7 -14 -17 -11 -22 6 -10 -9 -17
-50 -22 -18 -2 -33 -11 -37 -23 -4 -10 -8 -14 -9 -9 -1 6 -8 -3 -15 -20 -8
-16 -14 -24 -15 -16 0 11 -4 10 -16 -5 -8 -10 -12 -13 -8 -5 5 11 3 13 -10 8
-10 -4 -22 -7 -27 -7 -5 0 -8 -3 -8 -7 1 -5 1 -15 0 -23 -1 -12 -3 -13 -10 -1
-6 9 -10 10 -16 2 -5 -9 -11 -9 -23 1 -9 8 -13 8 -9 1 4 -6 -6 -20 -26 -32
-17 -11 -31 -23 -29 -26 6 -14 0 -23 -15 -20 -10 1 -24 -3 -32 -9 -12 -9 -13
-8 -7 4 4 8 0 6 -8 -4 -9 -11 -16 -23 -16 -28 0 -4 -3 -7 -8 -5 -4 1 -7 -2 -7
-7 0 -5 -10 -12 -22 -17 -13 -5 -23 -16 -24 -26 -4 -73 -3 -100 4 -117 6 -13
6 -16 -2 -12 -14 9 -14 0 0 -26 6 -11 7 -18 2 -15 -5 3 -8 -33 -7 -81 1 -48 3
-87 4 -87 1 0 3 -8 5 -18 2 -9 -1 -15 -6 -11 -12 7 -11 -3 2 -28 6 -11 7 -18
2 -15 -7 5 -9 -75 -4 -185 1 -11 8 -16 21 -13 11 2 19 1 19 -3 -3 -21 3 -32
18 -32 9 0 14 -2 11 -5 -3 -3 9 -20 26 -38 21 -22 39 -31 59 -30 15 1 25 -2
22 -7 -3 -4 6 -15 19 -24 18 -11 26 -12 29 -3 2 8 8 7 20 -4 9 -9 13 -19 10
-23 -4 -3 -1 -6 6 -6 16 0 42 -26 34 -34 -5 -5 37 -10 59 -7 4 0 10 -9 13 -20
5 -16 13 -20 31 -16 13 2 24 0 24 -5 0 -5 5 -6 10 -3 6 3 10 0 10 -8 0 -17 27
-30 41 -21 12 7 41 -15 34 -26 -3 -4 2 -10 10 -14 8 -3 17 0 21 6 4 7 9 7 14
-1 5 -8 14 -9 33 -2 18 7 27 7 29 -1 2 -6 16 0 31 14 15 14 23 29 19 34 -4 4
0 3 9 -4 11 -9 24 -9 40 -3 13 5 18 10 11 10 -10 1 -10 4 0 15 7 8 18 13 23
13 6 -1 9 3 8 10 -1 6 11 16 28 22 18 6 27 6 24 1 -4 -6 -2 -10 3 -10 5 0 15
12 22 26 9 16 20 24 31 21 20 -5 51 11 44 23 -3 4 2 10 10 14 8 3 15 0 15 -7
0 -8 2 -9 8 -1 4 6 15 10 25 8 12 -1 17 3 15 14 -2 10 3 16 10 14 8 -1 16 7
19 18 3 11 12 21 19 21 23 2 28 4 43 13 10 6 12 5 7 -2 -4 -7 -5 -12 -1 -12 3
0 10 11 15 25 5 14 15 24 22 23 8 -2 12 11 13 37 0 22 4 46 9 54 7 10 6 12 -4
6 -9 -5 -11 -4 -6 4 4 6 17 9 29 6 12 -2 16 -2 9 1 -10 5 -10 9 -1 21 10 11
10 16 0 22 -10 7 -10 13 -2 30 8 15 9 21 1 21 -6 0 -8 5 -3 13 11 18 13 37 2
37 -5 0 -4 12 2 27 7 20 7 28 -3 34 -10 6 -10 11 -1 20 9 9 10 16 2 26 -9 9
-8 13 0 13 8 0 9 5 2 19 -6 10 -7 21 -4 25 11 10 12 36 2 36 -5 0 -4 12 2 27
7 19 6 28 -2 34 -7 4 -8 12 -3 20 14 23 13 39 -2 39 -9 0 -12 5 -8 12 5 8 2 9
-9 5 -12 -4 -17 -1 -17 11 0 25 -58 25 -66 0 -3 -10 -10 -16 -15 -13 -5 4 -9
2 -9 -4 0 -5 -11 -8 -25 -5 -14 2 -25 0 -25 -4 0 -13 -52 -67 -64 -68 -6 0
-17 4 -24 9 -9 7 -11 5 -6 -8 5 -12 4 -16 -3 -12 -6 4 -13 0 -17 -8 -3 -9 -18
-15 -35 -15 -16 0 -33 -5 -37 -12 -5 -7 -2 -9 7 -4 8 4 5 0 -5 -8 -17 -14 -45
-21 -68 -17 -8 1 -12 -15 -9 -31 0 -5 -2 -7 -7 -7 -19 3 -33 -2 -27 -11 3 -5
1 -10 -5 -10 -6 0 -8 -5 -5 -10 4 -6 3 -10 -2 -9 -19 3 -33 -2 -33 -12 0 -5 6
-7 13 -3 7 4 9 3 4 -2 -5 -5 -13 -10 -18 -10 -5 -1 -14 -2 -20 -3 -5 0 -7 -5
-4 -11 3 -5 1 -10 -4 -10 -6 0 -11 -8 -11 -17 0 -15 -2 -16 -9 -4 -13 21 -22
-20 -17 -76 2 -24 -1 -43 -5 -43 -5 0 -9 -5 -9 -11 0 -5 6 -7 13 -3 7 4 8 3 4
-2 -5 -5 -22 -9 -38 -10 -26 -1 -31 3 -28 22 2 13 -23 21 -52 18 -18 -2 -28 0
-24 6 3 6 1 10 -4 10 -6 0 -11 7 -11 15 0 8 -6 14 -12 12 -7 -1 -12 4 -10 11
1 8 -2 11 -7 8 -5 -4 -12 -2 -16 4 -4 6 -10 8 -13 6 -4 -2 -7 19 -6 47 0 29
-4 58 -9 65 -6 8 -6 12 1 12 6 0 10 15 8 34 -3 26 0 33 10 29 8 -3 18 5 24 21
5 14 12 26 15 26 4 0 3 -4 0 -10 -3 -5 -1 -10 4 -10 6 0 11 4 11 10 0 11 70
80 82 80 5 0 6 -4 3 -10 -3 -6 1 -7 9 -4 8 3 18 14 21 25 4 11 11 17 16 14 5
-4 14 5 20 18 9 20 17 24 40 20 18 -2 29 0 29 7 0 6 6 18 14 26 11 11 16 11
19 1 4 -8 6 -8 6 0 1 6 10 9 21 6 14 -4 20 0 20 10 0 21 36 41 45 26 4 -6 24
8 49 35 29 31 46 42 53 35 7 -7 17 -3 30 14 13 17 27 23 46 21 15 -1 25 2 22
7 -4 5 -1 9 4 9 6 0 11 6 11 13 0 9 12 13 36 12 29 -2 35 1 31 15 -4 14 1 17
19 15 13 -1 24 1 24 6 0 5 6 6 14 3 8 -3 17 3 20 14 8 23 32 36 41 22 3 -5 12
-7 20 -4 10 4 13 0 10 -15 -2 -11 -1 -20 3 -20 39 6 70 -3 75 -22 4 -17 11
-20 36 -16 18 3 29 1 25 -4 -3 -5 -1 -9 5 -9 5 0 8 -11 5 -25 -3 -18 0 -25 11
-25 9 0 14 -4 11 -9 -3 -5 1 -11 9 -15 11 -4 13 -11 5 -30 -6 -17 -5 -26 3
-29 9 -3 9 -8 -2 -20 -10 -13 -10 -17 -1 -17 10 0 10 -3 0 -15 -10 -12 -10
-15 0 -15 10 0 10 -3 0 -15 -10 -12 -10 -15 0 -15 9 0 9 -4 -1 -17 -12 -15
-12 -16 1 -8 13 8 13 7 1 -8 -10 -13 -10 -17 -1 -17 10 0 10 -3 0 -15 -10 -12
-10 -15 0 -15 10 0 10 -3 0 -15 -10 -12 -10 -15 0 -15 10 0 10 -3 0 -15 -10
-12 -10 -15 1 -15 11 0 11 -2 -1 -10 -11 -7 -11 -10 -2 -10 10 0 10 -5 2 -20
-8 -14 -8 -20 0 -20 8 0 8 -6 0 -20 -8 -15 -8 -20 1 -20 8 0 8 -4 -1 -15 -10
-12 -10 -15 0 -15 10 0 10 -3 0 -15 -10 -12 -10 -15 1 -15 11 0 11 -2 -1 -10
-11 -7 -11 -10 -2 -10 10 0 10 -5 2 -20 -7 -13 -7 -20 -1 -20 7 0 7 -9 1 -25
-5 -14 -6 -25 -2 -25 4 0 8 -9 8 -20 0 -11 -5 -20 -11 -20 -5 0 -3 -5 5 -10
12 -8 12 -10 1 -10 -11 0 -11 -3 -1 -15 7 -8 8 -15 3 -15 -5 0 -10 -7 -10 -15
0 -8 4 -15 8 -15 9 0 6 -20 -4 -37 -5 -8 -3 -13 4 -13 8 0 8 -4 -1 -15 -8 -9
-8 -15 -2 -15 7 0 8 -10 2 -29 -4 -16 -5 -33 -2 -37 4 -5 -2 -2 -12 6 -13 10
-17 10 -12 3 4 -8 2 -13 -4 -13 -7 0 -9 -8 -5 -20 6 -20 -14 -50 -34 -50 -6 0
-7 -7 -4 -17 4 -11 3 -14 -5 -9 -7 4 -12 3 -12 -1 0 -5 -12 -9 -27 -8 -16 0
-27 -4 -26 -10 0 -5 -5 -16 -13 -23 -8 -7 -14 -10 -14 -7 0 3 -6 0 -14 -7 -8
-7 -12 -16 -10 -20 3 -4 -6 -7 -18 -6 -37 1 -50 -1 -44 -10 2 -4 -4 -13 -15
-20 -10 -7 -19 -8 -19 -3 0 5 -9 7 -20 4 -11 -3 -17 -9 -14 -14 3 -5 -2 -12
-10 -15 -9 -3 -13 -11 -10 -16 4 -7 0 -6 -12 0 -21 11 -60 -8 -46 -23 4 -5 -1
-5 -10 -2 -10 3 -17 3 -16 -1 3 -14 -14 -42 -23 -36 -5 3 -9 -1 -9 -8 0 -9 -3
-9 -10 2 -9 13 -10 13 -10 0 0 -10 -3 -11 -8 -4 -5 9 -10 8 -20 -2 -7 -7 -12
-17 -12 -21 0 -8 -5 -10 -46 -12 -14 0 -23 -5 -19 -11 3 -5 -6 -17 -20 -26
-14 -9 -25 -23 -25 -31 0 -13 -3 -13 -15 -3 -10 8 -15 9 -15 2 0 -6 -6 -9 -14
-6 -9 3 -17 -3 -21 -15 -3 -12 -11 -19 -16 -15 -6 3 -17 0 -26 -8 -14 -11 -16
-11 -8 2 8 13 7 13 -8 1 -11 -9 -17 -10 -17 -2 0 13 -22 10 -32 -4 -5 -7 -8
-6 -8 0 0 6 -9 11 -20 12 -13 1 -18 -2 -14 -9 5 -7 2 -8 -7 -2 -20 12 -39 14
-39 2 0 -5 -12 4 -26 21 -22 27 -29 29 -47 20 -12 -7 -19 -8 -15 -4 12 13 -31
43 -57 40 -14 -1 -25 2 -25 8 0 19 -64 71 -89 71 -15 1 -25 6 -23 14 1 6 -4
13 -10 14 -7 0 -17 2 -23 3 -5 2 -18 3 -28 4 -10 0 -16 5 -13 10 3 5 -1 14 -9
21 -11 9 -15 9 -15 1 0 -19 -57 16 -82 49 -12 17 -28 28 -35 26 -18 -7 -44 4
-37 15 3 5 -2 9 -10 9 -9 0 -16 4 -16 9 0 4 -11 6 -25 3 -23 -4 -30 4 -26 30
0 5 -9 8 -21 8 -12 0 -19 3 -15 6 8 8 -18 34 -33 34 -6 0 -8 4 -5 10 3 5 1 10
-5 10 -6 0 -9 4 -6 9 3 5 -1 8 -10 7 -12 -1 -16 11 -18 52 -2 28 1 52 6 52 5
0 6 5 2 12 -12 20 -12 222 0 230 7 5 7 8 -1 8 -7 0 -13 5 -13 11 0 5 5 7 12 3
7 -5 8 -3 3 6 -13 20 -13 84 -1 92 8 5 7 8 -1 8 -7 0 -13 5 -13 11 0 5 5 7 12
3 7 -5 8 -3 3 6 -12 19 -14 90 -3 90 5 0 6 5 2 12 -12 18 -12 228 -1 228 6 0
2 10 -9 22 -10 12 -13 18 -6 14 8 -5 12 2 12 24 0 25 4 31 16 26 8 -3 12 -2 9
4 -3 6 -1 10 5 10 6 0 8 5 5 10 -3 6 0 10 8 10 8 0 17 7 21 15 3 8 12 15 21
15 8 0 15 5 15 10 0 7 7 7 21 -1 15 -8 19 -8 15 0 -4 6 -2 11 5 11 7 0 10 3 6
6 -3 4 8 20 24 37 26 26 34 29 49 19 16 -9 20 -8 25 8 4 11 11 20 16 20 6 0 8
4 5 8 -2 4 4 8 15 8 10 0 19 -5 19 -10 0 -5 9 0 20 12 12 12 25 22 31 22 6 0
7 6 3 13 -6 9 -4 9 8 -1 14 -11 19 -9 38 15 12 15 24 27 26 26 2 -2 4 0 3 3
-1 12 26 24 55 24 16 0 27 3 23 6 -11 11 23 36 43 31 11 -3 25 2 32 11 11 13
11 14 -1 7 -10 -6 -12 -4 -7 4 5 7 14 10 22 7 8 -3 14 -1 14 5 0 5 6 9 13 8
29 -4 39 2 33 17 -4 10 -1 14 6 12 14 -5 38 15 38 31 0 7 11 9 25 7 14 -3 25
0 25 5 0 6 5 7 10 4 6 -3 10 3 10 15 0 17 3 19 19 10 14 -7 22 -7 26 0 4 6 12
7 18 4 7 -4 9 -4 5 0 -4 5 6 21 22 36 16 15 26 31 22 35 -4 4 5 5 20 3 16 -3
35 1 45 9 11 9 12 12 3 7 -12 -5 -13 -4 -3 6 7 7 24 14 39 14 16 1 31 11 40
26 7 14 13 19 14 12 0 -19 40 -6 63 20 9 11 17 16 17 12 0 -5 5 -1 11 9 14 24
9 28 -38 31 -29 2 -37 6 -35 19 2 14 -5 17 -37 17 -32 0 -39 3 -34 16 4 10 -1
17 -15 21 -12 3 -24 13 -27 23 -6 18 -20 21 -42 7 -7 -5 -19 -5 -25 0 -21 12
-38 12 -38 0 0 -8 -4 -7 -9 2 -5 7 -14 10 -20 7 -6 -4 -11 -4 -10 1 4 21 -2
33 -16 33 -8 0 -16 -3 -16 -7z"/>
</g>
</svg>
